<svg width="133" height="95" viewBox="0 0 133 95" fill="none" xmlns="http://www.w3.org/2000/svg">
<path d="M109.913 85.5248C94.497 87.4808 71.414 90.4293 67.6239 90.9865C67.264 91.0387 66.8983 91.0677 66.5327 91.0677C59.678 91.0677 56.6134 82.2745 55.4584 78.9661C54.0712 74.9845 53.0207 70.585 52.3242 67.2012C45.8758 67.3347 39.6538 67.4624 34.1225 67.5784L25.5788 80.777L18.0973 67.9151L12.6298 68.0312C5.66483 68.0312 0 62.3663 0 55.4014V28.6502L0.0174128 28.447C0.504959 22.2714 1.71222 17.3205 12.1945 14.3894C20.2332 12.1432 35.2949 10.3033 65.3022 6.63513C76.4055 5.27697 90.2251 3.58797 106.337 1.55072C107.394 1.41722 108.456 1.27212 109.518 1.12702C113.297 0.616257 117.203 0.0822754 120.557 0.0822754C123.593 0.0822754 127.952 0.447937 130.755 3.59377C131.951 4.94033 133.286 7.30261 132.862 10.936C131.823 19.8569 128.788 36.1665 124.481 48.3262C126.187 48.6338 127.453 49.0865 128.55 49.7308C132.299 51.9247 132.584 55.5407 132.758 57.6998L132.775 57.9088V73.6205C132.775 78.5773 128.915 83.0232 123.988 83.7545L121.631 84.0564L116.164 94.26L109.913 85.5248Z" fill="white"/>
<path d="M106.982 6.72219C6.756 19.3984 6.12915 17.2799 5.2121 28.8475V55.3956C5.2121 59.4875 8.53206 62.8075 12.6182 62.8075C12.6182 62.8075 15.822 62.7378 21.0516 62.6275L25.8051 70.7997L31.232 62.4186C57.2403 61.873 102.083 60.9617 109.135 60.9617C118.868 60.9617 126.112 23.5542 127.656 10.3324C128.515 3.05979 117.203 5.43368 106.982 6.72219Z" fill="#FF002B"/>
<path d="M68.1172 53.9678C126.64 52.7199 127.006 51.4314 127.54 58.1061V73.6089C127.54 76.0002 125.601 78.2232 123.216 78.5714C123.216 78.5714 121.347 78.8094 118.288 79.1925L115.514 84.3756L112.345 79.947C97.1552 81.874 70.9728 85.2114 66.8577 85.815C61.1755 86.6566 56.9443 65.4367 56.0446 57.8507C55.5513 53.6892 62.1506 54.0955 68.1172 53.9678Z" fill="#143164"/>
<path d="M31.4003 28.3832L32.7179 46.8926L27.8482 47.2408L27.3316 39.9682L22.8915 47.2814H22.8567L17.4124 40.6705L17.929 47.9431L13.0593 48.2914L11.7418 29.782L13.6977 29.6427L22.3401 39.8696L29.4443 28.5225L31.4003 28.3832Z" fill="white"/>
<path d="M47.4952 43.6945L40.6463 44.1821L39.8627 46.3876L34.5403 46.7649L41.7433 27.5881L44.0533 27.4256L53.9087 45.3893L48.5747 45.7666L47.4952 43.6945ZM45.6959 40.2411L43.5077 36.0273L41.929 40.5081L45.6959 40.2411Z" fill="white"/>
<path d="M53.9899 42.2609L56.7295 39.1615C57.5711 40.2352 59.0453 40.8156 60.5776 40.7054C61.6108 40.6299 62.5975 40.183 62.5452 39.4343C62.4756 38.4882 60.5428 37.7917 58.6855 37.1242C56.2942 36.2884 54.1931 34.907 53.9957 32.1385C53.7694 28.9636 56.625 26.4853 60.1075 26.2357C62.9051 26.0383 65.1861 27.1992 66.0277 28.9578L63.41 31.8657C62.7948 30.937 61.3554 30.6178 60.479 30.6758C59.4748 30.7455 58.7958 31.3085 58.8422 31.9353C58.9002 32.7769 60.2178 32.9569 62.255 33.6475C65.2093 34.6517 67.235 36.2652 67.4265 38.9757C67.6761 42.4698 64.5767 44.8727 60.9027 45.1339C57.8903 45.3545 55.0579 44.2169 53.9899 42.2609Z" fill="white"/>
<path d="M81.6293 29.5557L77.2355 29.8691L78.2164 43.6597L73.3352 44.0079L72.3543 30.2173L67.9489 30.5307L67.6239 25.9803L81.2984 25.0052L81.6293 29.5557Z" fill="white"/>
<path d="M88.5071 29.0449L88.687 31.6045L94.5144 31.1924L94.8046 35.2553L88.9772 35.6674L89.1629 38.2967L96.2382 37.7917L96.5632 42.3538L84.6706 43.2012L83.3646 24.8601L95.2573 24.0127L95.5765 28.5399L88.5071 29.0449Z" fill="white"/>
<path d="M109.071 41.4657L103.604 33.8507L104.172 41.814L99.3028 42.1622L97.9736 23.8212L104.939 23.3278C108.897 23.0434 111.921 25.516 112.153 28.8069C112.316 31.0937 111.074 33.102 109.338 34.048L114.777 41.0594L109.071 41.4657ZM103.412 31.529L105.403 31.4014C106.442 31.3375 107.33 30.5423 107.249 29.4163C107.167 28.2787 106.163 27.6403 105.136 27.7157L103.145 27.855L103.412 31.529Z" fill="white"/>
<path d="M80.9734 79.4479C77.9668 79.4479 75.9644 78.3509 74.3683 77.0565C73.962 77.1378 73.5557 77.1842 73.132 77.2191C67.9953 77.5847 63.8106 74.1255 63.4565 69.2036C63.1025 64.241 66.7707 60.2014 71.9073 59.8357C77.0382 59.47 81.2462 62.9525 81.5944 67.915C81.8092 70.8984 80.5439 73.5392 78.3789 75.2515C79.5281 75.4372 80.8573 75.5068 82.1922 75.443L80.9734 79.4479ZM72.8418 73.0227C75.4653 72.8369 77.3342 70.7359 77.1542 68.1937C76.9743 65.6398 74.8268 63.8173 72.2033 64.0031C69.5799 64.1888 67.7109 66.3015 67.8909 68.8495C68.0708 71.3975 70.2183 73.2084 72.8418 73.0227Z" fill="white"/>
<path d="M83.8464 69.9988L83.0977 59.4817L87.5146 59.1683L88.2633 69.6737C88.362 71.0435 89.6041 71.8735 90.852 71.7864C92.0941 71.6994 93.2375 70.6778 93.1388 69.3255L92.3901 58.82L96.807 58.5066L97.5557 69.0237C97.8227 72.8138 94.9439 75.71 91.1596 75.977C87.3811 76.244 84.1192 73.7889 83.8464 69.9988Z" fill="white"/>
<path d="M99.5349 58.315L103.923 58.0016L105.095 74.5202L100.707 74.8336L99.5349 58.315Z" fill="white"/>
<path d="M112.089 61.5421L106.506 61.9368L106.215 57.8391L118.706 56.9511L114.01 69.7492L119.582 69.3545L119.873 73.4754L107.382 74.3635L112.089 61.5421Z" fill="white"/>
</svg>
