<svg width="24" height="24" viewBox="0 0 24 24" fill="none" xmlns="http://www.w3.org/2000/svg">
<ellipse cx="11.9469" cy="11.7064" rx="11.9469" ry="11.7064" fill="#686868"/>
<path d="M12.1849 17.2092C10.7046 17.2092 9.45078 16.691 8.4234 15.6547C7.39602 14.6184 6.88232 13.3537 6.88232 11.8605C6.88232 10.3673 7.39602 9.1026 8.4234 8.0663C9.45078 7.02999 10.7046 6.51184 12.1849 6.51184C12.9472 6.51184 13.6763 6.67063 14.3723 6.98821C15.0683 7.30578 15.6648 7.75986 16.1619 8.35045V6.51184H17.4876V11.1919H12.8478V9.85476H15.6317C15.2781 9.23075 14.7948 8.74045 14.1817 8.38388C13.5686 8.0273 12.903 7.84901 12.1849 7.84901C11.0802 7.84901 10.1412 8.23902 9.36793 9.01903C8.59463 9.79905 8.20798 10.7462 8.20798 11.8605C8.20798 12.9748 8.59463 13.922 9.36793 14.702C10.1412 15.482 11.0802 15.872 12.1849 15.872C13.0356 15.872 13.8034 15.6269 14.4883 15.1366C15.1732 14.6463 15.6537 14 15.9299 13.1977H17.3219C17.0125 14.3788 16.3829 15.3427 15.4328 16.0893C14.4828 16.8359 13.4001 17.2092 12.1849 17.2092Z" fill="white"/>
</svg>
